<svg width="600" height="91.00000000000001" xmlns="http://www.w3.org/2000/svg" xml:space="preserve" version="1.1">

 <g>
  <title>Layer 1</title>
  <path id="svg_1" fill="#3B6E8F" d="m236.7,66.79999l31.2,0c2.7,0 4.9,2.2 4.9,4.9c0,2.8 -2.2,4.9 -4.9,4.9l-36.6,0c-3.1,0 -5.5,-2.4 -5.5,-5.5l0,-51.1c0,-3.1 2.4,-5.5 5.5,-5.5l36.1,0c2.7,0 4.9,2.2 4.9,4.9c0,2.7 -2.2,4.9 -4.9,4.9l-30.7,0l0,42.5zm28.2,-21.4c0,-2.7 -2.2,-4.9 -4.9,-4.9l-14.1,0c-2.7,0 -4.9,2.2 -4.9,4.9c0,2.7 2.2,4.9 4.9,4.9l14.1,0c2.7,0 4.9,-2.2 4.9,-4.9m244.5,26.3c0,2.9 2.4,5.3 5.4,5.3c2.9,0 5.3,-2.4 5.3,-5.3l0,-39.4l31.9,41.4c1.5,2 3.1,3.3 5.7,3.3l0.4,0c3,0 5.3,-2.4 5.3,-5.4l0,-52.3c0,-2.9 -2.4,-5.3 -5.4,-5.3c-2.9,0 -5.3,2.4 -5.3,5.3l0,38.2l-30.9,-40.3c-1.5,-1.9 -3,-3.2 -5.7,-3.2l-1.2,0c-3.1,0 -5.5,2.5 -5.5,5.5l0,52.2zm-53.9,-4.2c-12.3,0 -21.1,-9.9 -21.1,-22l0,-0.2c0,-12.1 8.6,-21.9 21,-21.9c12.3,0 21.1,10 21.1,22.1l0,0.2c0,12 -8.6,21.8 -21,21.8m-0.1,10.1c19.1,0 32.6,-14.6 32.6,-32.1l0,-0.2c0,-17.5 -13.3,-32 -32.4,-32c-19.1,0 -32.6,14.7 -32.6,32.1l0,0.2c0,17.5 13.3,32 32.4,32m-160.9,-6c0,3 2.4,5.4 5.5,5.4c3,0 5.4,-2.4 5.4,-5.4l0,-12.9l10.1,-9.8l20,25.5c1.1,1.5 2.5,2.6 4.6,2.6c3.1,0 5.5,-2.3 5.5,-5.3c0,-1.7 -0.6,-2.8 -1.5,-3.9l-21,-26l19.4,-18.6c1.2,-1.1 2,-2.4 2,-4.1c0,-2.7 -2,-5.1 -5.1,-5.1c-2,0 -3.3,0.7 -4.5,2l-29.5,29.7l0,-26.3c0,-3 -2.4,-5.4 -5.4,-5.4c-3.1,0 -5.5,2.4 -5.5,5.4l0,52.2zm-136.2,-5l0,-42.3l12.3,0c13,0 21.6,9 21.6,21.1l0,0.2c0,12.2 -8.5,21 -21.6,21l-12.3,0zm-10.9,4.4c0,3.1 2.4,5.5 5.5,5.5l17.7,0c19.5,0 33,-13.6 33,-31.1l0,-0.1c0,-17.5 -13.5,-30.9 -33,-30.9l-17.7,0c-3.1,0 -5.5,2.4 -5.5,5.5l0,51.1zm231.8,0.6c0,3 2.5,5.4 5.5,5.4c3,0 5.5,-2.4 5.5,-5.4l0,-47.1l15.2,0c2.7,0 5,-2.3 5,-5.1c0,-2.7 -2.2,-5 -5,-5l-41.3,0c-2.9,0 -5.1,2.3 -5.1,5c0,2.8 2.2,5.1 5.1,5.1l15.1,0l0,47.1zm210.3,-49.6l0,-2.6l2,0c1,0 1.6,0.5 1.6,1.3c0,0.8 -0.6,1.3 -1.6,1.3l-2,0zm-2.3,3.9c0,0.6 0.5,1.1 1.2,1.1c0.6,0 1.1,-0.5 1.1,-1.1l0,-2.1l1.5,0l2.2,2.7c0.3,0.3 0.6,0.5 0.9,0.5c0.7,0 1.2,-0.5 1.2,-1.1c0,-0.3 -0.1,-0.6 -0.3,-0.8l-1.4,-1.7c1.1,-0.5 1.9,-1.4 1.9,-2.9c0,-2.1 -1.6,-3.1 -3.8,-3.1l-3.3,0c-0.6,0 -1.2,0.5 -1.2,1.2l0,7.3zm3.8,4.5c-4.6,0 -8,-3.7 -8,-8.1l0,0c0,-4.4 3.5,-8.1 8,-8.1c4.6,0 8,3.6 8,8.1l0,0.1c0,4.3 -3.5,8 -8,8m0,1c5.1,0 9.1,-4.2 9.1,-9.1l0,-0.1c0,-5 -4,-9.1 -9.1,-9.1c-5.1,0 -9.1,4.2 -9.1,9.1l0,0.1c0,5 4,9.1 9.1,9.1m-507.3,6.8l-76.5,0c-4,0 -7.2,3.2 -7.2,7.2c0,4 3.2,7.2 7.2,7.2l76.4,0c4,0 7.2,-3.2 7.2,-7.2c0,-4 -3.2,-7.2 -7.1,-7.2m-9.6,19.1l-66.9,0c-4,0 -7.2,3.2 -7.2,7.2c0,4 3.2,7.2 7.2,7.2l66.9,0c4,0 7.2,-3.2 7.2,-7.2c0,-3.9 -3.2,-7.2 -7.2,-7.2m0,-38.2l-66.9,0c-4,0 -7.2,3.2 -7.2,7.2c0,4 3.2,7.2 7.2,7.2l66.9,0c4,0 7.2,-3.2 7.2,-7.2c0,-4 -3.2,-7.2 -7.2,-7.2m-23.9,57.3l-43,0c-4,0 -7.2,3.2 -7.2,7.2c0,4 3.2,7.2 7.2,7.2l43,0c4,0 7.2,-3.2 7.2,-7.2c0,-3.9 -3.2,-7.2 -7.2,-7.2m7.2,-69.2c0,4 -3.2,7.2 -7.2,7.2l-43,0c-4,0 -7.2,-3.2 -7.2,-7.2c0,-4 3.2,-7.2 7.2,-7.2l43,0c4,0 7.2,3.2 7.2,7.2" class="st0"/>
 </g>
</svg>