<svg width="150" height="25" xmlns="http://www.w3.org/2000/svg">

 <g>
  <title>Layer 1</title>
  <g>
   <path fill="#000000" d="m110.8,14.3c0.2,4.6 -3.4,8.4 -8,8.6c-0.2,0 -0.4,0 -0.5,0c-4.6,0.1 -8.5,-3.6 -8.6,-8.2c0,-0.1 0,-0.3 0,-0.4c-0.2,-4.7 3.5,-8.7 8.3,-8.9c4.7,-0.2 8.7,3.5 8.9,8.3c-0.1,0.2 -0.1,0.4 -0.1,0.6l0,0zm-3.8,-0.1c0,-0.8 -0.1,-1.7 -0.5,-2.4c-1,-2.4 -3.8,-3.4 -6.2,-2.4c-1,0.4 -1.8,1.2 -2.3,2.2c-0.7,1.4 -0.8,3 -0.3,4.4c0.6,2.5 3.1,4 5.6,3.4c0,0 0,0 0,0c2.2,-0.5 3.7,-2.5 3.7,-5.2l0,0z" class="st0"/>
   <path fill="#000000" d="m115.6,7.8c2.3,-2.9 7.6,-2.8 9.6,-0.4c1,1.2 1.6,2.6 1.6,4.2c0,3.4 0,10.9 0,10.9l-3.8,0c0,0 0,-6.8 0,-9.8c0,-0.2 0,-0.4 0,-0.6c-0.2,-2 -1.3,-3.1 -3.1,-3.2c-1.9,-0.2 -3.6,1.1 -3.9,3c-0.1,0.5 -0.1,1.1 -0.1,1.6c0,2.8 0,9.1 0,9.1l-3.8,0l0,-16.6l3.5,0c0,0 0,1.4 0,1.8z" class="st0"/>
   <path fill="#000000" d="m53.7,3.2l0,-3.2l-3.8,1.1c0,7 0,14.4 0,21.4l3.8,0c-0.1,-6.2 0,-13.1 0,-19.3z" class="st0"/>
   <path fill="#000000" d="m91.2,6l0,-3.3l-3.8,0l0,3.3l-1.4,0l0,3.1l1.4,0l0,13.4l3.8,0l0,-13.4l2.3,0c0.4,-0.7 0.9,-1.4 1.5,-2c0.4,-0.4 0.9,-0.8 1.4,-1.1l-5.2,0z" class="st0"/>
   <path fill="#000000" d="m41.4,17.4c-0.1,-2 -1.3,-3.3 -3.6,-4c-0.8,-0.2 -1.7,-0.4 -2.5,-0.6c-0.9,-0.1 -1.8,-0.4 -2.7,-0.8c-0.7,-0.4 -1,-1.3 -0.6,-2c0.1,-0.2 0.2,-0.3 0.3,-0.4c1.4,-1.2 3.6,-0.9 4.7,0.5c0.1,0.1 0.2,0.3 0.3,0.4l0,0.1c0.1,0.2 0.2,0.3 0.2,0.3l0.2,-0.1l3.3,-1c0,-0.1 0,-0.1 0,-0.2c-0.4,-1.3 -1.3,-2.4 -2.5,-3c-2.4,-1.3 -5.2,-1.3 -7.6,0c-1.8,0.9 -2.9,2.9 -2.6,5c0.2,1.9 1.7,3.4 3.5,3.7c1.4,0.3 2.9,0.6 4.4,1c1,0.3 1.5,0.9 1.5,1.6c0,0.9 -0.7,1.7 -1.5,1.9c-0.5,0.2 -1,0.2 -1.5,0.2l-0.4,0l-0.2,0c-1.3,-0.2 -2.4,-1 -3,-2.1l0,0l-3.3,1c0.6,1.6 1.8,2.8 3.4,3.5c2.3,0.9 4.8,0.9 7.1,-0.1c2,-0.7 3.3,-2.8 3.1,-4.9z" class="st0"/>
   <path fill="#000000" d="m85.6,17.4c-0.1,-2 -1.3,-3.3 -3.6,-4c-0.8,-0.2 -1.7,-0.4 -2.5,-0.6c-0.9,-0.1 -1.8,-0.4 -2.7,-0.8c-0.7,-0.4 -1,-1.3 -0.6,-2c0.1,-0.2 0.2,-0.3 0.3,-0.4c1.4,-1.2 3.5,-0.9 4.7,0.5c0.1,0.1 0.2,0.3 0.3,0.4l0,0.1c0.1,0.2 0.2,0.3 0.2,0.3l0.2,-0.1l3.3,-1c0,-0.1 0,-0.1 0,-0.2c-0.4,-1.3 -1.3,-2.3 -2.5,-3c-2.4,-1.3 -5.2,-1.3 -7.6,0c-1.8,0.9 -2.9,3 -2.6,5c0.2,1.9 1.7,3.4 3.6,3.7c1.4,0.3 2.9,0.6 4.3,1c1,0.3 1.5,0.9 1.5,1.6c0,0.9 -0.7,1.7 -1.6,1.9c-0.5,0.2 -1,0.2 -1.4,0.2l-0.3,0l-0.2,0c-1.3,-0.2 -2.3,-1 -2.9,-2.1l0,0l-3.3,1c0.6,1.6 1.8,2.8 3.4,3.5c2.3,0.9 4.8,0.9 7.1,-0.1c1.9,-0.8 3.2,-2.8 2.9,-4.9z" class="st0"/>
   <path fill="#000000" d="m71.3,11.8c-1.6,-6.8 -9.1,-7.7 -13,-4.5c-3,2.7 -3.9,7 -2.3,10.7c1.2,3 4.2,4.9 7.5,4.8c2.9,0.1 5.6,-1.4 7,-3.9l0,0l-3.3,-1l0,0c0,0 -0.2,0.2 -0.4,0.4c-1.8,1.8 -4.6,1.8 -6.4,0c-0.6,-0.6 -1,-1.3 -1.2,-2.1c-0.2,-0.8 -0.2,-0.9 -0.2,-0.9l12.4,0c0.1,-1.1 0.1,-2.3 -0.1,-3.5zm-3.6,0.7c-1.3,0 -3.1,0 -4.3,0s-3.1,0 -4.3,0c0,0 0,-0.1 0.1,-0.6c0.5,-2 2.3,-3.3 4.4,-3.2c2,-0.1 3.7,1.3 4.1,3.2c0,0.2 0,0.4 0,0.6z" class="st0"/>
   <path fill="#000000" d="m144.4,11.8c-1.6,-6.8 -9.1,-7.7 -13,-4.5c-3,2.7 -3.9,7 -2.3,10.7c1.9,4.1 6.9,5.9 11,4c1.4,-0.7 2.7,-1.8 3.5,-3.1l0,0l-3.3,-1l0,0c0,0 -0.2,0.2 -0.4,0.4c-1.8,1.8 -4.6,1.8 -6.4,0c-0.6,-0.6 -1,-1.3 -1.2,-2.1c-0.2,-0.8 -0.2,-0.9 -0.2,-0.9l12.4,0c0.2,-1.1 0.2,-2.3 -0.1,-3.5zm-3.5,0.7c-1.3,0 -3.1,0 -4.4,0s-3.1,0 -4.3,0c0,0 0,-0.1 0.1,-0.6c0.5,-2 2.3,-3.3 4.4,-3.2c2,-0.1 3.7,1.3 4.1,3.2c0,0.2 0.1,0.4 0.1,0.6z" class="st0"/>
   <rect fill="#000000" height="13.6" width="3.8" class="st0" y="8.9" x="43.3"/>
   <circle fill="#000000" r="2.2" cy="4.7" cx="45.2" class="st0"/>
   <path fill="#000000" d="m150,8.4c0,1.2 -1,2.2 -2.2,2.2s-2.2,-1 -2.2,-2.2c0,-1.2 1,-2.2 2.2,-2.2c1.2,0.1 2.2,1 2.2,2.2c0,0 0,0 0,0zm-0.3,0c0,-1 -0.9,-1.9 -1.9,-1.9c-1,0 -1.9,0.9 -1.9,1.9s0.9,1.9 1.9,1.9c1.1,0 1.9,-0.8 1.9,-1.9zm-1,1.1l-0.3,0l-0.5,-0.9l-0.6,0l0,0.9l-0.3,0l0,-2.2l0.8,0c0.4,0 0.7,0.2 0.7,0.6c0,0 0,0 0,0.1c0,0.3 -0.2,0.5 -0.4,0.6l0.6,0.9zm-1.3,-1.1l0.5,0c0.3,0 0.5,-0.2 0.5,-0.4s-0.1,-0.4 -0.5,-0.4l-0.5,0l0,0.8z" class="st0"/>
   <path fill="#FF4438" d="m17.7,25.3c0.5,0 0.9,-0.2 1.3,-0.4c3.8,-2.5 3.9,-7.2 1.1,-11.8c-2.2,-3.7 -1.8,-6.8 0.1,-9.5c0.1,-0.1 0,-0.2 0,-0.2c0,0 -0.1,0 -0.1,0l-19.9,0c-0.1,-0.2 -0.2,-0.1 -0.2,0c0,0 0,0 0,0l0,21.7c0,0.1 0.1,0.2 0.2,0.2l17.5,0z" class="st1"/>
  </g>
 </g>
</svg>